
                  <svg
                    xmlns="http://www.w3.org/2000/svg"
                    width="0.875em"
                    height="3.600em"
                    viewBox="0 0 875 3600"
                  >
                    <path
                      d="M76,0c-16.7,0,-25,3,-25,9c0,2,2,6.3,6,13c21.3,28.7,42.3,60.3,
                    63,95c96.7,156.7,172.8,332.5,228.5,527.5c55.7,195,92.8,416.5,111.5,664.5
                    c11.3,139.3,17,290.7,17,454c0,28,1.7,43,3.3,45l0,9
                    c-3,4,-3.3,16.7,-3.3,38c0,162,-5.7,313.7,-17,455c-18.7,248,-55.8,469.3,-111.5,664
                    c-55.7,194.7,-131.8,370.3,-228.5,527c-20.7,34.7,-41.7,66.3,-63,95c-2,3.3,-4,7,-6,11
                    c0,7.3,5.7,11,17,11c0,0,11,0,11,0c9.3,0,14.3,-0.3,15,-1c5.3,-5.3,10.3,-11,15,-17
                    c242.7,-294.7,395.3,-681.7,458,-1161c21.3,-164.7,33.3,-350.7,36,-558
                    l0,-144c-2,-159.3,-10,-310.7,-24,-454c-53.3,-528,-210,-949.7,
                    -470,-1265c-4.7,-6,-9.7,-11.7,-15,-17c-0.7,-0.7,-6.7,-1,-18,-1z"
                    ></path>
                  </svg>